<?xml version="1.0" encoding="UTF-8" standalone="no"?>
<!DOCTYPE svg PUBLIC "-//W3C//DTD SVG 1.1//EN"
 "http://www.w3.org/Graphics/SVG/1.1/DTD/svg11.dtd">
<!-- Generated by graphviz version 2.40.1 (20161225.0304)
 -->
<!-- Title: G Pages: 1 -->
<svg width="174pt" height="188pt"
 viewBox="0.00 0.00 173.81 188.00" xmlns="http://www.w3.org/2000/svg" xmlns:xlink="http://www.w3.org/1999/xlink">
<g id="graph0" class="graph" transform="scale(1 1) rotate(0) translate(4 184)">
<title>G</title>
<polygon fill="#ffffff" stroke="transparent" points="-4,4 -4,-184 169.8067,-184 169.8067,4 -4,4"/>
<!-- plus -->
<g id="node1" class="node">
<title>plus</title>
<ellipse fill="none" stroke="#000000" cx="102.8067" cy="-162" rx="27" ry="18"/>
<text text-anchor="middle" x="102.8067" y="-157.8" font-family="Times,serif" font-size="14.00" fill="#000000">+</text>
</g>
<!-- times -->
<g id="node2" class="node">
<title>times</title>
<ellipse fill="none" stroke="#000000" cx="66.8067" cy="-90" rx="27" ry="18"/>
<text text-anchor="middle" x="66.8067" y="-85.8" font-family="Times,serif" font-size="14.00" fill="#000000">*</text>
</g>
<!-- plus&#45;&gt;times -->
<g id="edge1" class="edge">
<title>plus&#45;&gt;times</title>
<path fill="none" stroke="#000000" d="M94.0921,-144.5708C89.847,-136.0807 84.6531,-125.6929 79.9404,-116.2674"/>
<polygon fill="#000000" stroke="#000000" points="83.0437,-114.6477 75.4411,-107.2687 76.7827,-117.7782 83.0437,-114.6477"/>
</g>
<!-- one -->
<g id="node3" class="node">
<title>one</title>
<ellipse fill="none" stroke="#000000" cx="138.8067" cy="-90" rx="27" ry="18"/>
<text text-anchor="middle" x="138.8067" y="-85.8" font-family="Times,serif" font-size="14.00" fill="#000000">1</text>
</g>
<!-- plus&#45;&gt;one -->
<g id="edge2" class="edge">
<title>plus&#45;&gt;one</title>
<path fill="none" stroke="#000000" d="M111.5213,-144.5708C115.7664,-136.0807 120.9603,-125.6929 125.673,-116.2674"/>
<polygon fill="#000000" stroke="#000000" points="128.8307,-117.7782 130.1724,-107.2687 122.5697,-114.6477 128.8307,-117.7782"/>
</g>
<!-- rdi -->
<g id="node4" class="node">
<title>rdi</title>
<ellipse fill="none" stroke="#000000" cx="29.8067" cy="-18" rx="29.6147" ry="18"/>
<text text-anchor="middle" x="29.8067" y="-13.8" font-family="Times,serif" font-size="14.00" fill="#000000">%rdi</text>
</g>
<!-- times&#45;&gt;rdi -->
<g id="edge3" class="edge">
<title>times&#45;&gt;rdi</title>
<path fill="none" stroke="#000000" d="M58.0382,-72.937C53.6788,-64.4537 48.3114,-54.0092 43.4314,-44.513"/>
<polygon fill="#000000" stroke="#000000" points="46.453,-42.7352 38.7693,-35.4407 40.227,-45.9348 46.453,-42.7352"/>
</g>
<!-- four -->
<g id="node5" class="node">
<title>four</title>
<ellipse fill="none" stroke="#000000" cx="104.8067" cy="-18" rx="27" ry="18"/>
<text text-anchor="middle" x="104.8067" y="-13.8" font-family="Times,serif" font-size="14.00" fill="#000000">4</text>
</g>
<!-- times&#45;&gt;four -->
<g id="edge4" class="edge">
<title>times&#45;&gt;four</title>
<path fill="none" stroke="#000000" d="M75.8122,-72.937C80.2895,-64.4537 85.8019,-54.0092 90.8137,-44.513"/>
<polygon fill="#000000" stroke="#000000" points="94.0296,-45.9182 95.6019,-35.4407 87.8389,-42.6509 94.0296,-45.9182"/>
</g>
</g>
</svg>
