<?xml version="1.0" encoding="UTF-8" standalone="no"?>
<!DOCTYPE svg PUBLIC "-//W3C//DTD SVG 1.1//EN"
 "http://www.w3.org/Graphics/SVG/1.1/DTD/svg11.dtd">
<!-- Generated by graphviz version 2.40.1 (20161225.0304)
 -->
<!-- Title: G Pages: 1 -->
<svg width="391pt" height="260pt"
 viewBox="0.00 0.00 391.00 260.00" xmlns="http://www.w3.org/2000/svg" xmlns:xlink="http://www.w3.org/1999/xlink">
<g id="graph0" class="graph" transform="scale(1 1) rotate(0) translate(4 256)">
<title>G</title>
<polygon fill="#ffffff" stroke="transparent" points="-4,4 -4,-256 387,-256 387,4 -4,4"/>
<!-- plus -->
<g id="node1" class="node">
<title>plus</title>
<ellipse fill="none" stroke="#000000" cx="135" cy="-234" rx="27" ry="18"/>
<text text-anchor="middle" x="135" y="-229.8" font-family="Times,serif" font-size="14.00" fill="#000000">+</text>
</g>
<!-- times -->
<g id="node3" class="node">
<title>times</title>
<ellipse fill="none" stroke="#000000" cx="99" cy="-162" rx="27" ry="18"/>
<text text-anchor="middle" x="99" y="-157.8" font-family="Times,serif" font-size="14.00" fill="#000000">*</text>
</g>
<!-- plus&#45;&gt;times -->
<g id="edge1" class="edge">
<title>plus&#45;&gt;times</title>
<path fill="none" stroke="#000000" d="M126.2854,-216.5708C122.0403,-208.0807 116.8464,-197.6929 112.1337,-188.2674"/>
<polygon fill="#000000" stroke="#000000" points="115.237,-186.6477 107.6343,-179.2687 108.976,-189.7782 115.237,-186.6477"/>
</g>
<!-- one -->
<g id="node4" class="node">
<title>one</title>
<ellipse fill="none" stroke="#000000" cx="171" cy="-162" rx="27" ry="18"/>
<text text-anchor="middle" x="171" y="-157.8" font-family="Times,serif" font-size="14.00" fill="#000000">1</text>
</g>
<!-- plus&#45;&gt;one -->
<g id="edge6" class="edge">
<title>plus&#45;&gt;one</title>
<path fill="none" stroke="#000000" d="M143.7146,-216.5708C147.9597,-208.0807 153.1536,-197.6929 157.8663,-188.2674"/>
<polygon fill="#000000" stroke="#000000" points="161.024,-189.7782 162.3657,-179.2687 154.763,-186.6477 161.024,-189.7782"/>
</g>
<!-- shift -->
<g id="node2" class="node">
<title>shift</title>
<ellipse fill="none" stroke="#000000" cx="27" cy="-162" rx="27" ry="18"/>
<text text-anchor="middle" x="27" y="-157.8" font-family="Times,serif" font-size="14.00" fill="#000000">&lt;&lt;</text>
</g>
<!-- shift&#45;&gt;times -->
<g id="edge11" class="edge">
<title>shift&#45;&gt;times</title>
<path fill="none" stroke="#0000ff" stroke-dasharray="5,2" d="M54,-162C59.9766,-162 65.9531,-162 71.9297,-162"/>
</g>
<!-- rdi -->
<g id="node5" class="node">
<title>rdi</title>
<ellipse fill="none" stroke="#000000" cx="63" cy="-90" rx="29.6147" ry="18"/>
<text text-anchor="middle" x="63" y="-85.8" font-family="Times,serif" font-size="14.00" fill="#000000">%rdi</text>
</g>
<!-- shift&#45;&gt;rdi -->
<g id="edge4" class="edge">
<title>shift&#45;&gt;rdi</title>
<path fill="none" stroke="#000000" d="M35.7146,-144.5708C39.9597,-136.0807 45.1536,-125.6929 49.8663,-116.2674"/>
<polygon fill="#000000" stroke="#000000" points="53.024,-117.7782 54.3657,-107.2687 46.763,-114.6477 53.024,-117.7782"/>
</g>
<!-- twoShift -->
<g id="node6" class="node">
<title>twoShift</title>
<ellipse fill="none" stroke="#000000" cx="163" cy="-90" rx="27" ry="18"/>
<text text-anchor="middle" x="163" y="-85.8" font-family="Times,serif" font-size="14.00" fill="#000000">2</text>
</g>
<!-- shift&#45;&gt;twoShift -->
<g id="edge5" class="edge">
<title>shift&#45;&gt;twoShift</title>
<path fill="none" stroke="#000000" d="M48.25,-150.75C70.8722,-138.7735 106.8739,-119.7138 132.516,-106.1386"/>
<polygon fill="#000000" stroke="#000000" points="134.2501,-109.1808 141.4504,-101.4086 130.9749,-102.9943 134.2501,-109.1808"/>
</g>
<!-- times&#45;&gt;rdi -->
<g id="edge7" class="edge">
<title>times&#45;&gt;rdi</title>
<path fill="none" stroke="#000000" d="M90.2854,-144.5708C86.0403,-136.0807 80.8464,-125.6929 76.1337,-116.2674"/>
<polygon fill="#000000" stroke="#000000" points="79.237,-114.6477 71.6343,-107.2687 72.976,-117.7782 79.237,-114.6477"/>
</g>
<!-- four -->
<g id="node7" class="node">
<title>four</title>
<ellipse fill="none" stroke="#000000" cx="248" cy="-90" rx="27" ry="18"/>
<text text-anchor="middle" x="248" y="-85.8" font-family="Times,serif" font-size="14.00" fill="#000000">4</text>
</g>
<!-- times&#45;&gt;four -->
<g id="edge8" class="edge">
<title>times&#45;&gt;four</title>
<path fill="none" stroke="#000000" d="M120.671,-151.0863C125.3867,-148.7333 130.3545,-146.2711 135,-144 162.5179,-130.5468 193.9689,-115.5476 216.6913,-104.7778"/>
<polygon fill="#000000" stroke="#000000" points="218.3175,-107.8804 225.8581,-100.438 215.3222,-101.5536 218.3175,-107.8804"/>
</g>
<!-- exp -->
<g id="node8" class="node">
<title>exp</title>
<ellipse fill="none" stroke="#000000" cx="320" cy="-90" rx="27" ry="18"/>
<text text-anchor="middle" x="320" y="-85.8" font-family="Times,serif" font-size="14.00" fill="#000000">**</text>
</g>
<!-- four&#45;&gt;exp -->
<g id="edge12" class="edge">
<title>four&#45;&gt;exp</title>
<path fill="none" stroke="#0000ff" stroke-dasharray="5,2" d="M275,-90C280.9766,-90 286.9531,-90 292.9297,-90"/>
</g>
<!-- twoL -->
<g id="node9" class="node">
<title>twoL</title>
<ellipse fill="none" stroke="#000000" cx="284" cy="-18" rx="27" ry="18"/>
<text text-anchor="middle" x="284" y="-13.8" font-family="Times,serif" font-size="14.00" fill="#000000">2</text>
</g>
<!-- exp&#45;&gt;twoL -->
<g id="edge9" class="edge">
<title>exp&#45;&gt;twoL</title>
<path fill="none" stroke="#000000" d="M311.2854,-72.5708C307.0403,-64.0807 301.8464,-53.6929 297.1337,-44.2674"/>
<polygon fill="#000000" stroke="#000000" points="300.237,-42.6477 292.6343,-35.2687 293.976,-45.7782 300.237,-42.6477"/>
</g>
<!-- twoR -->
<g id="node10" class="node">
<title>twoR</title>
<ellipse fill="none" stroke="#000000" cx="356" cy="-18" rx="27" ry="18"/>
<text text-anchor="middle" x="356" y="-13.8" font-family="Times,serif" font-size="14.00" fill="#000000">2</text>
</g>
<!-- exp&#45;&gt;twoR -->
<g id="edge10" class="edge">
<title>exp&#45;&gt;twoR</title>
<path fill="none" stroke="#000000" d="M328.7146,-72.5708C332.9597,-64.0807 338.1536,-53.6929 342.8663,-44.2674"/>
<polygon fill="#000000" stroke="#000000" points="346.024,-45.7782 347.3657,-35.2687 339.763,-42.6477 346.024,-45.7782"/>
</g>
<!-- dummy1 -->
<!-- dummy1&#45;&gt;twoShift -->
<!-- dummy1&#45;&gt;four -->
</g>
</svg>
