<?xml version="1.0" encoding="UTF-8" standalone="no"?>
<!DOCTYPE svg PUBLIC "-//W3C//DTD SVG 1.1//EN"
 "http://www.w3.org/Graphics/SVG/1.1/DTD/svg11.dtd">
<!-- Generated by graphviz version 2.40.1 (20161225.0304)
 -->
<!-- Title: G Pages: 1 -->
<svg width="248pt" height="260pt"
 viewBox="0.00 0.00 247.81 260.00" xmlns="http://www.w3.org/2000/svg" xmlns:xlink="http://www.w3.org/1999/xlink">
<g id="graph0" class="graph" transform="scale(1 1) rotate(0) translate(4 256)">
<title>G</title>
<polygon fill="#ffffff" stroke="transparent" points="-4,4 -4,-256 243.8067,-256 243.8067,4 -4,4"/>
<!-- plus -->
<g id="node1" class="node">
<title>plus</title>
<ellipse fill="none" stroke="#000000" cx="102.8067" cy="-234" rx="27" ry="18"/>
<text text-anchor="middle" x="102.8067" y="-229.8" font-family="Times,serif" font-size="14.00" fill="#000000">+</text>
</g>
<!-- times -->
<g id="node2" class="node">
<title>times</title>
<ellipse fill="none" stroke="#000000" cx="66.8067" cy="-162" rx="27" ry="18"/>
<text text-anchor="middle" x="66.8067" y="-157.8" font-family="Times,serif" font-size="14.00" fill="#000000">*</text>
</g>
<!-- plus&#45;&gt;times -->
<g id="edge1" class="edge">
<title>plus&#45;&gt;times</title>
<path fill="none" stroke="#000000" d="M94.0921,-216.5708C89.847,-208.0807 84.6531,-197.6929 79.9404,-188.2674"/>
<polygon fill="#000000" stroke="#000000" points="83.0437,-186.6477 75.4411,-179.2687 76.7827,-189.7782 83.0437,-186.6477"/>
</g>
<!-- one -->
<g id="node3" class="node">
<title>one</title>
<ellipse fill="none" stroke="#000000" cx="138.8067" cy="-162" rx="27" ry="18"/>
<text text-anchor="middle" x="138.8067" y="-157.8" font-family="Times,serif" font-size="14.00" fill="#000000">1</text>
</g>
<!-- plus&#45;&gt;one -->
<g id="edge2" class="edge">
<title>plus&#45;&gt;one</title>
<path fill="none" stroke="#000000" d="M111.5213,-216.5708C115.7664,-208.0807 120.9603,-197.6929 125.673,-188.2674"/>
<polygon fill="#000000" stroke="#000000" points="128.8307,-189.7782 130.1724,-179.2687 122.5697,-186.6477 128.8307,-189.7782"/>
</g>
<!-- rdi -->
<g id="node4" class="node">
<title>rdi</title>
<ellipse fill="none" stroke="#000000" cx="29.8067" cy="-90" rx="29.6147" ry="18"/>
<text text-anchor="middle" x="29.8067" y="-85.8" font-family="Times,serif" font-size="14.00" fill="#000000">%rdi</text>
</g>
<!-- times&#45;&gt;rdi -->
<g id="edge3" class="edge">
<title>times&#45;&gt;rdi</title>
<path fill="none" stroke="#000000" d="M58.0382,-144.937C53.6788,-136.4537 48.3114,-126.0092 43.4314,-116.513"/>
<polygon fill="#000000" stroke="#000000" points="46.453,-114.7352 38.7693,-107.4407 40.227,-117.9348 46.453,-114.7352"/>
</g>
<!-- four -->
<g id="node5" class="node">
<title>four</title>
<ellipse fill="none" stroke="#000000" cx="104.8067" cy="-90" rx="27" ry="18"/>
<text text-anchor="middle" x="104.8067" y="-85.8" font-family="Times,serif" font-size="14.00" fill="#000000">4</text>
</g>
<!-- times&#45;&gt;four -->
<g id="edge4" class="edge">
<title>times&#45;&gt;four</title>
<path fill="none" stroke="#000000" d="M75.8122,-144.937C80.2895,-136.4537 85.8019,-126.0092 90.8137,-116.513"/>
<polygon fill="#000000" stroke="#000000" points="94.0296,-117.9182 95.6019,-107.4407 87.8389,-114.6509 94.0296,-117.9182"/>
</g>
<!-- exp -->
<g id="node6" class="node">
<title>exp</title>
<ellipse fill="none" stroke="#000000" cx="176.8067" cy="-90" rx="27" ry="18"/>
<text text-anchor="middle" x="176.8067" y="-85.8" font-family="Times,serif" font-size="14.00" fill="#000000">**</text>
</g>
<!-- four&#45;&gt;exp -->
<g id="edge7" class="edge">
<title>four&#45;&gt;exp</title>
<path fill="none" stroke="#0000ff" stroke-dasharray="5,2" d="M131.8067,-90C137.7833,-90 143.7598,-90 149.7364,-90"/>
</g>
<!-- twoL -->
<g id="node7" class="node">
<title>twoL</title>
<ellipse fill="none" stroke="#000000" cx="140.8067" cy="-18" rx="27" ry="18"/>
<text text-anchor="middle" x="140.8067" y="-13.8" font-family="Times,serif" font-size="14.00" fill="#000000">2</text>
</g>
<!-- exp&#45;&gt;twoL -->
<g id="edge5" class="edge">
<title>exp&#45;&gt;twoL</title>
<path fill="none" stroke="#000000" d="M168.0921,-72.5708C163.847,-64.0807 158.6531,-53.6929 153.9404,-44.2674"/>
<polygon fill="#000000" stroke="#000000" points="157.0437,-42.6477 149.4411,-35.2687 150.7827,-45.7782 157.0437,-42.6477"/>
</g>
<!-- twoR -->
<g id="node8" class="node">
<title>twoR</title>
<ellipse fill="none" stroke="#000000" cx="212.8067" cy="-18" rx="27" ry="18"/>
<text text-anchor="middle" x="212.8067" y="-13.8" font-family="Times,serif" font-size="14.00" fill="#000000">2</text>
</g>
<!-- exp&#45;&gt;twoR -->
<g id="edge6" class="edge">
<title>exp&#45;&gt;twoR</title>
<path fill="none" stroke="#000000" d="M185.5213,-72.5708C189.7664,-64.0807 194.9603,-53.6929 199.673,-44.2674"/>
<polygon fill="#000000" stroke="#000000" points="202.8307,-45.7782 204.1724,-35.2687 196.5697,-42.6477 202.8307,-45.7782"/>
</g>
</g>
</svg>
